REM DIRINDEX 1\2,1\3,1\4,1\5,1\6
REM DIRNAME folder01,folder02,folder03,folder04,folder05,folder06
TITLE ""
FILE "Disc3Track10.mp3" MP3
  TRACK 01 AUDIO
    TITLE "2:cjc030_04322"
    INDEX 01 00:00:00
  TRACK 02 AUDIO
    TITLE "0:"
    INDEX 01 00:03:39
  TRACK 03 AUDIO
    TITLE "3:cjc030_04323"
    INDEX 01 00:03:72
  TRACK 04 AUDIO
    TITLE "0:"
    INDEX 01 00:05:16
  TRACK 05 AUDIO
    TITLE "4:cjc030_04324"
    INDEX 01 00:05:26
  TRACK 06 AUDIO
    TITLE "0:"
    INDEX 01 00:07:31
  TRACK 07 AUDIO
    TITLE "5:cjc030_04325"
    INDEX 01 00:07:41
  TRACK 08 AUDIO
    TITLE "0:"
    INDEX 01 00:08:60
  TRACK 09 AUDIO
    TITLE "6:cjc030_04326"
    INDEX 01 00:08:72
  TRACK 10 AUDIO
    TITLE "0:"
    INDEX 01 00:14:47
  TRACK 11 AUDIO
    TITLE "3:cjc030_04327"
    INDEX 01 00:15:19
  TRACK 12 AUDIO
    TITLE "0:"
    INDEX 01 00:16:30
  TRACK 13 AUDIO
    TITLE "4:cjc030_04328"
    INDEX 01 00:16:38
  TRACK 14 AUDIO
    TITLE "0:"
    INDEX 01 00:18:74
  TRACK 15 AUDIO
    TITLE "5:cjc030_04329"
    INDEX 01 00:19:07
  TRACK 16 AUDIO
    TITLE "0:"
    INDEX 01 00:20:18
  TRACK 17 AUDIO
    TITLE "6:cjc030_04330"
    INDEX 01 00:20:32
  TRACK 18 AUDIO
    TITLE "0:"
    INDEX 01 00:24:74
  TRACK 19 AUDIO
    TITLE "3:cjc030_04331"
    INDEX 01 00:25:48
  TRACK 20 AUDIO
    TITLE "0:"
    INDEX 01 00:26:66
  TRACK 21 AUDIO
    TITLE "4:cjc030_04332"
    INDEX 01 00:26:73
  TRACK 22 AUDIO
    TITLE "0:"
    INDEX 01 00:28:39
  TRACK 23 AUDIO
    TITLE "5:cjc030_04333"
    INDEX 01 00:28:47
  TRACK 24 AUDIO
    TITLE "0:"
    INDEX 01 00:29:64
  TRACK 25 AUDIO
    TITLE "3:cjc030_04334"
    INDEX 01 00:30:46
  TRACK 26 AUDIO
    TITLE "0:"
    INDEX 01 00:31:57
  TRACK 27 AUDIO
    TITLE "4:cjc030_04335"
    INDEX 01 00:31:67
  TRACK 28 AUDIO
    TITLE "0:"
    INDEX 01 00:33:56
  TRACK 29 AUDIO
    TITLE "5:cjc030_04336"
    INDEX 01 00:33:64
  TRACK 30 AUDIO
    TITLE "0:"
    INDEX 01 00:35:02
  TRACK 31 AUDIO
    TITLE "6:cjc030_04337"
    INDEX 01 00:35:15
  TRACK 32 AUDIO
    TITLE "0:"
    INDEX 01 00:40:48
  TRACK 33 AUDIO
    TITLE "3:cjc030_04338"
    INDEX 01 00:41:24
  TRACK 34 AUDIO
    TITLE "0:"
    INDEX 01 00:42:45
  TRACK 35 AUDIO
    TITLE "4:cjc030_04339"
    INDEX 01 00:42:53
  TRACK 36 AUDIO
    TITLE "0:"
    INDEX 01 00:45:00
  TRACK 37 AUDIO
    TITLE "5:cjc030_04340"
    INDEX 01 00:45:08
  TRACK 38 AUDIO
    TITLE "0:"
    INDEX 01 00:46:29
  TRACK 39 AUDIO
    TITLE "3:cjc030_04341"
    INDEX 01 00:47:07
  TRACK 40 AUDIO
    TITLE "0:"
    INDEX 01 00:48:30
  TRACK 41 AUDIO
    TITLE "4:cjc030_04342"
    INDEX 01 00:48:40
  TRACK 42 AUDIO
    TITLE "0:"
    INDEX 01 00:50:29
  TRACK 43 AUDIO
    TITLE "5:cjc030_04343"
    INDEX 01 00:50:37
  TRACK 44 AUDIO
    TITLE "0:"
    INDEX 01 00:51:60
  TRACK 45 AUDIO
    TITLE "3:cjc030_04344"
    INDEX 01 00:52:41
  TRACK 46 AUDIO
    TITLE "0:"
    INDEX 01 00:54:54
  TRACK 47 AUDIO
    TITLE "4:cjc030_04345"
    INDEX 01 00:54:64
  TRACK 48 AUDIO
    TITLE "0:"
    INDEX 01 00:58:01
  TRACK 49 AUDIO
    TITLE "5:cjc030_04346"
    INDEX 01 00:58:11
  TRACK 50 AUDIO
    TITLE "0:"
    INDEX 01 01:00:23
  TRACK 51 AUDIO
    TITLE "6:cjc030_04347"
    INDEX 01 01:00:35
  TRACK 52 AUDIO
    TITLE "0:"
    INDEX 01 01:04:56
  TRACK 53 AUDIO
    TITLE "3:cjc030_04348"
    INDEX 01 01:05:30
  TRACK 54 AUDIO
    TITLE "0:"
    INDEX 01 01:06:53
  TRACK 55 AUDIO
    TITLE "4:cjc030_04349"
    INDEX 01 01:06:61
  TRACK 56 AUDIO
    TITLE "0:"
    INDEX 01 01:07:72
  TRACK 57 AUDIO
    TITLE "5:cjc030_04350"
    INDEX 01 01:08:07
  TRACK 58 AUDIO
    TITLE "0:"
    INDEX 01 01:09:30
  TRACK 59 AUDIO
    TITLE "3:cjc030_04351"
    INDEX 01 01:10:06
  TRACK 60 AUDIO
    TITLE "0:"
    INDEX 01 01:11:25
  TRACK 61 AUDIO
    TITLE "4:cjc030_04352"
    INDEX 01 01:11:35
  TRACK 62 AUDIO
    TITLE "0:"
    INDEX 01 01:12:26
  TRACK 63 AUDIO
    TITLE "5:cjc030_04353"
    INDEX 01 01:12:34
  TRACK 64 AUDIO
    TITLE "0:"
    INDEX 01 01:13:53
  TRACK 65 AUDIO
    TITLE "3:cjc030_04354"
    INDEX 01 01:14:31
  TRACK 66 AUDIO
    TITLE "0:"
    INDEX 01 01:15:52
  TRACK 67 AUDIO
    TITLE "4:cjc030_04355"
    INDEX 01 01:15:60
  TRACK 68 AUDIO
    TITLE "0:"
    INDEX 01 01:18:11
  TRACK 69 AUDIO
    TITLE "5:cjc030_04356"
    INDEX 01 01:18:17
  TRACK 70 AUDIO
    TITLE "0:"
    INDEX 01 01:19:38
  TRACK 71 AUDIO
    TITLE "6:cjc030_04357"
    INDEX 01 01:19:52
  TRACK 72 AUDIO
    TITLE "0:"
    INDEX 01 01:25:45
  TRACK 73 AUDIO
    TITLE "3:cjc030_04358"
    INDEX 01 01:26:19
  TRACK 74 AUDIO
    TITLE "0:"
    INDEX 01 01:27:51
  TRACK 75 AUDIO
    TITLE "4:cjc030_04359"
    INDEX 01 01:27:59
  TRACK 76 AUDIO
    TITLE "0:"
    INDEX 01 01:30:26
  TRACK 77 AUDIO
    TITLE "5:cjc030_04360"
    INDEX 01 01:30:36
  TRACK 78 AUDIO
    TITLE "0:"
    INDEX 01 01:31:69
  TRACK 79 AUDIO
    TITLE "3:cjc030_04361"
    INDEX 01 01:32:47
  TRACK 80 AUDIO
    TITLE "0:"
    INDEX 01 01:33:60
  TRACK 81 AUDIO
    TITLE "4:cjc030_04362"
    INDEX 01 01:33:70
  TRACK 82 AUDIO
    TITLE "0:"
    INDEX 01 01:36:33
  TRACK 83 AUDIO
    TITLE "5:cjc030_04363"
    INDEX 01 01:36:41
  TRACK 84 AUDIO
    TITLE "0:"
    INDEX 01 01:37:58
  TRACK 85 AUDIO
    TITLE "3:cjc030_04364"
    INDEX 01 01:38:36
  TRACK 86 AUDIO
    TITLE "0:"
    INDEX 01 01:39:59
  TRACK 87 AUDIO
    TITLE "4:cjc030_04365"
    INDEX 01 01:39:68
  TRACK 88 AUDIO
    TITLE "0:"
    INDEX 01 01:42:16
  TRACK 89 AUDIO
    TITLE "5:cjc030_04366"
    INDEX 01 01:42:22
  TRACK 90 AUDIO
    TITLE "0:"
    INDEX 01 01:43:49
  TRACK 91 AUDIO
    TITLE "6:cjc030_04367"
    INDEX 01 01:43:60
  TRACK 92 AUDIO
    TITLE "0:"
    INDEX 01 01:46:02
  TRACK 93 AUDIO
    TITLE "3:cjc030_04368"
    INDEX 01 01:46:51
  TRACK 94 AUDIO
    TITLE "0:"
    INDEX 01 01:48:03
  TRACK 95 AUDIO
    TITLE "4:cjc030_04369"
    INDEX 01 01:48:11
  TRACK 96 AUDIO
    TITLE "0:"
    INDEX 01 01:48:73
  TRACK 97 AUDIO
    TITLE "5:cjc030_04370"
    INDEX 01 01:49:08
  TRACK 98 AUDIO
    TITLE "0:"
    INDEX 01 01:50:35
